<?xml version="1.0" encoding="UTF-8"?>
<svg xmlns="http://www.w3.org/2000/svg" width="151" height="214" viewBox="0 0 151 214">
  <g fill="#000000">
    <path d="M 46 153 L 44 153 L 43 154 L 41 154 L 40 155 L 38 155 L 37 156 L 35 156 L 34 157 L 33 157 L 32 158 L 30 158 L 29 159 L 27 159 L 26 160 L 24 160 L 24 161 L 23 162 L 23 182 L 24 183 L 24 184 L 25 185 L 45 185 L 46 184 Z"/>
    <path d="M 80 135 L 78 135 L 77 136 L 75 136 L 74 137 L 72 137 L 71 138 L 69 138 L 68 139 L 66 139 L 63 141 L 61 141 L 60 142 L 58 142 L 57 143 L 57 184 L 58 185 L 79 185 L 80 184 Z"/>
    <path d="M 115 110 L 111 111 L 108 113 L 103 114 L 100 116 L 92 118 L 91 119 L 91 184 L 92 185 L 114 185 L 115 184 L 115 137 L 116 136 L 116 133 L 115 132 L 115 126 L 116 125 L 115 116 L 116 115 L 116 112 Z"/>
    <path d="M 137 25 L 70 26 L 56 31 L 39 44 L 28 61 L 24 75 L 24 141 L 65 100 L 75 96 L 108 95 L 119 87 L 126 71 L 72 71 L 60 75 L 51 82 L 49 80 L 54 67 L 68 55 L 79 52 L 117 52 L 124 49 L 131 42 L 137 30 Z"/>
  </g>
</svg>
